<svg id="assets" xmlns="http://www.w3.org/2000/svg" viewBox="0 0 1000 1000"><defs><style>.cls-1{fill:none;stroke:#000;stroke-linecap:round;stroke-miterlimit:10;stroke-width:34px;}</style></defs><path d="M590.5,519.27l2.2-.53q24-56.83,48.11-113.8a2.77,2.77,0,0,0,0-.92,7.84,7.84,0,0,0-1.15-.19h-114c-.35.53-.71,1-1,1.47a39.45,39.45,0,0,1-17.24,17.33c-.26.14-.5.29-.74.45a2.73,2.73,0,0,0-.36.32c-.05.51-.15,1.17-.18,1.82s0,1.35,0,2V651.88c0,1.24,0,2.47.07,3.66a4.91,4.91,0,0,0,3,.43q11.57,0,23.13,0a17.46,17.46,0,0,1,6,.94,16.48,16.48,0,0,1,9,7.33c.49.83.93,1.68,1.47,2.69,2.83.13,5.72,0,8.6.06h17.22c1,.84,1.1,2,1.43,2.93q8.47,25.2,16.89,50.4c1.19,3.56,2.39,7.11,3.57,10.68.23.71.37,1.45.57,2.25a6.47,6.47,0,0,1-1.29.31l-212.79,0a2.72,2.72,0,0,1-.78-.28c.39-2.19,20.68-63,22.09-66.14,2.8-.24,5.69-.09,8.56-.11s5.78,0,8.68,0h8.74c.41-.71.8-1.35,1.18-2,3.33-5.85,8.35-8.93,15.09-9,7.62-.07,15.23,0,22.84,0,1.05,0,2.09-.06,3.31-.1.08-.67.19-1.21.21-1.76,0-1,0-1.93,0-2.89V423.56c-2.75-1.84-5.36-3.46-7.83-5.27a29,29,0,0,1-6.48-6.55c-1.79-2.49-3.38-5.13-5-7.7-2.34-.29-112.16-.33-115,0-.47.8,0,1.46.32,2.14Q343.45,417,348.07,428q18.58,43.89,37.16,87.79c.41,1,.84,1.94,1.29,3l2,.5a4.94,4.94,0,0,1,.25,1A60.63,60.63,0,0,1,387.39,534a76.26,76.26,0,0,1-147.85,5.62,72.4,72.4,0,0,1-2.79-17.36c0-.77,0-1.54,0-2.31a4.22,4.22,0,0,1,.22-.72l2-.53c.38-.82.84-1.76,1.25-2.72q18.54-43.77,37.05-87.53,11.61-27.4,23.2-54.8c.41-1,.87-1.9,1.35-2.95,1.44,0,2.77-.1,4.11-.1h144c1.34,0,2.68,0,3.89-.05,1.79-2.65,3.38-5.17,5.15-7.56a28.37,28.37,0,0,1,6.12-6.11c2.4-1.76,4.92-3.35,7.64-5.18a7.12,7.12,0,0,0,.2-1.36q0-10.85,0-21.69c0-.47-.06-.95-.11-1.5l-2.09-1.5c-7.61-5.38-12.46-12.63-13.92-21.82a33.3,33.3,0,1,1,52.15,21.51c-.85.62-1.72,1.21-2.63,1.85v24.43a9.44,9.44,0,0,0,1.3.94,39.78,39.78,0,0,1,16.79,16.63c.22.42.51.79.87,1.34,1.31,0,2.65.07,4,.07H673.51c1.24,0,2.48,0,3.86.06,3.67,8.28,7.06,16.56,10.56,24.78s6.9,16.32,10.36,24.48,7,16.49,10.48,24.74,7,16.49,10.48,24.74L729.6,493.9c3.49,8.24,7,16.48,10.51,24.8l2.18.61a4.11,4.11,0,0,1,.23.88,78.87,78.87,0,0,1-1.92,15.75,75.84,75.84,0,0,1-56.93,56.68,77.2,77.2,0,0,1-25.55,1.49,76.07,76.07,0,0,1-64.78-53.8,82.51,82.51,0,0,1-3.08-18.78c0-.48,0-1,0-1.44A4.65,4.65,0,0,1,590.5,519.27Zm-240.3-.51c-.28-.84-.45-1.47-.7-2.07-8.88-21.92-35.2-83.61-36.74-86.08a5.61,5.61,0,0,0-.66.91q-18.32,43.34-36.59,86.69c-.06.14.08.36.13.54C277.83,519.09,347,519.13,350.2,518.76Zm278.86.08c.87.06,1.62.16,2.36.17,26.28.29,69.84.12,72.26-.29a7.53,7.53,0,0,0-1.06-3.23q-14.5-34.31-29-68.6c-2.1-5-4.19-9.93-6.32-14.89-.2-.47-.28-1.2-1.35-1q-18.25,43.15-36.6,86.55A6.84,6.84,0,0,0,629.06,518.84Z"/><path d="M733.23,720.94c-12.09,9.06-23.63,18.35-35.8,26.73A366,366,0,0,1,567.11,804a382.43,382.43,0,0,1-118.68,6.85q-111-11.72-198.06-81.76A367.73,367.73,0,0,1,151,604.53a362.21,362.21,0,0,1-32-98.29,357.67,357.67,0,0,1-5.29-52.76Q110.57,329.7,182,228.58c36.36-51.25,83.11-90.55,139.45-118.34a365.56,365.56,0,0,1,99-32.31,378.92,378.92,0,0,1,54-5.58q93.51-2.86,177.55,38.17A373.34,373.34,0,0,1,821.6,279.89a368.81,368.81,0,0,1,8.66,306.2c-4.49,10.6-13.91,15-22.4,14.45-11.28-.68-19.18-7.51-21.64-18.08a22,22,0,0,1,1.3-13.91,317,317,0,0,0,21.7-75.61A330.66,330.66,0,0,0,813,450.53a319,319,0,0,0-1.73-43.06c-3.59-33.05-11.74-65-25.58-95.23Q727.53,185,596,136.76a306.09,306.09,0,0,0-66.38-15.93,320.47,320.47,0,0,0-54-2.7C401.54,121,335.42,145.55,278,192.66,230.08,232,196.23,281.28,176.28,340a313.5,313.5,0,0,0-14.64,66.7,321.81,321.81,0,0,0-.79,64,318.2,318.2,0,0,0,33.9,118.14,327.57,327.57,0,0,0,188.14,161.4,305.93,305.93,0,0,0,59.54,13.66c11.93,1.46,24,2.1,36,2.72,17.31.9,34.56-.35,51.71-2.63a323.57,323.57,0,0,0,94.46-27.49,328,328,0,0,0,89.26-61.16c3-2.85,6.1-5.8,9.67-7.72a22.26,22.26,0,0,1,26.62,4.32c11.58,11.94,23,24.06,34.44,36.1q27.79,29.18,55.57,58.36,31.3,32.88,62.58,65.8c15.88,16.69,31.82,33.32,47.62,50.08,8.77,9.29,8.17,23.33-1.14,32.25-8.82,8.44-23.39,8.42-32-.46-15.56-16.06-30.92-32.33-46.35-48.53q-22.87-24-45.74-48.08l-63.09-66.33Q748,736.38,734,721.67C733.66,721.31,733.28,721,733.23,720.94Z"/><path d="M708.91,691.07c-10.82,8-21.15,16.29-32,23.72a329,329,0,0,1-116.63,50A345,345,0,0,1,454,770.85c-66.24-6.93-125.43-31-177.25-72.57a326.85,326.85,0,0,1-88.94-110.55,319.57,319.57,0,0,1-28.67-87.24,314.38,314.38,0,0,1-4.73-46.83Q151.67,343.8,215.57,254c32.53-45.49,74.37-80.38,124.79-105a329.4,329.4,0,0,1,88.58-28.67,341.87,341.87,0,0,1,48.3-5q83.68-2.53,158.9,33.89A332.72,332.72,0,0,1,788,299.58a324.92,324.92,0,0,1,7.75,271.79c-4,9.41-12.45,13.28-20,12.82-10.09-.6-17.16-6.66-19.36-16.05a19.42,19.42,0,0,1,1.16-12.34,279.79,279.79,0,0,0,19.42-67.11A291.18,291.18,0,0,0,780.32,451a280.27,280.27,0,0,0-1.55-38.22c-3.21-29.33-10.51-57.67-22.89-84.53Q703.82,215.37,586.13,172.54a275.11,275.11,0,0,0-59.41-14.14,287.89,287.89,0,0,0-48.3-2.4c-66.36,2.57-125.53,24.34-176.91,66.15-42.89,34.91-73.19,78.66-91,130.79a277,277,0,0,0-13.11,59.21,284.31,284.31,0,0,0-.7,56.78A280.78,280.78,0,0,0,227,573.79a288.11,288.11,0,0,0,77.77,94.42,291.32,291.32,0,0,0,90.6,48.84,275.26,275.26,0,0,0,53.28,12.13c10.69,1.29,21.47,1.86,32.23,2.41a254,254,0,0,0,46.28-2.33,293.5,293.5,0,0,0,164.42-78.69,41.52,41.52,0,0,1,8.66-6.86,20.06,20.06,0,0,1,23.82,3.84c10.36,10.6,20.55,21.36,30.82,32.05q24.87,25.89,49.73,51.79,28,29.21,56,58.41c14.2,14.81,28.47,29.58,42.61,44.45,7.85,8.25,7.31,20.71-1,28.63a20.65,20.65,0,0,1-28.63-.41c-13.93-14.26-27.67-28.7-41.48-43.08q-20.48-21.32-40.93-42.67-28.24-29.43-56.47-58.88-12.54-13.08-25.1-26.13C709.29,691.39,709,691.11,708.91,691.07Z"/><path d="M522.28,200c1.59.17,3.19.35,4.78.55l.67.09.68.09,2.47.37q4.86.73,9.67,1.69,9.45,1.88,18.69,4.56t18.42,6.19q2.24.87,4.47,1.78l1.06.43.65.27c-.6-.25.47.2.64.28l1.24.53q4.5,2,8.91,4.1a234.18,234.18,0,0,1,33.2,19.7c1.31.93,2.6,1.87,3.89,2.83l1.84,1.38.92.7.45.35c-.29-.24-.55-.43-.1-.08q3.85,3,7.6,6.18,7.3,6.21,14.09,13c4.54,4.57,8.9,9.34,13,14.3,1,1.23,2,2.46,3,3.71.48.6.95,1.2,1.42,1.81a5.46,5.46,0,0,1,.36.45l-.2-.26.81,1.07q3,3.88,5.73,7.91c.91,1.32,1.8,2.64,2.68,4,1.44,2.18,4.49,3.31,6.84,1.79,2.18-1.4,3.33-4.5,1.79-6.84a225.37,225.37,0,0,0-24.82-31.28,238,238,0,0,0-63.38-47.29,238.08,238.08,0,0,0-37.3-15.27,229,229,0,0,0-39.26-8.51c-1.65-.22-3.31-.41-5-.58-2.61-.28-5.12,2.49-5,5,.13,2.94,2.2,4.7,5,5Z"/><circle cx="797.31" cy="565.49" r="39.8"/><ellipse cx="925.36" cy="906.4" rx="34.04" ry="35.15"/><line class="cls-1" x1="709.52" y1="711.13" x2="916.02" y2="922.02"/></svg>