<svg id="assets" xmlns="http://www.w3.org/2000/svg" viewBox="0 0 1521.36 453.86"><defs><style>.cls-1{fill:#d4af37;}.cls-2{fill:none;stroke:#d4af37;stroke-linecap:round;stroke-miterlimit:10;stroke-width:34px;}</style></defs><path d="M436.67,301.62V115.68h31.12v86.26L542,115.68h38.22l-79.92,91.16,85.34,94.78H546.16l-78.37-86.77v86.77Z"/><path d="M655,305.49q-20.91,0-36.54-9.42a64.19,64.19,0,0,1-24.21-26q-8.6-16.59-8.59-38.16,0-21.94,8.78-38.47a64.79,64.79,0,0,1,24.41-25.83q15.61-9.3,36.15-9.29,21,0,36.67,9.42a64.69,64.69,0,0,1,24.28,26q8.64,16.59,8.65,38.15t-8.72,38.29a64.6,64.6,0,0,1-24.34,25.95Q675.94,305.49,655,305.49Zm0-29.18q18.6,0,27.63-12.39t9-32q0-20.26-9.17-32.34T655,187.48q-12.53,0-20.59,5.61a33,33,0,0,0-11.95,15.63,64,64,0,0,0-3.87,23.17q0,20.28,9.23,32.35T655,276.31Z"/><path d="M752.75,301.62V162.17h27.77v43.25h3.74v96.2Zm96.72,0V234.48a131.6,131.6,0,0,0-.91-14.59,52.37,52.37,0,0,0-4.19-15.43,30,30,0,0,0-9.82-12.21q-6.52-4.77-17.62-4.77a37,37,0,0,0-11.75,1.93,26.81,26.81,0,0,0-10.53,6.65A33.48,33.48,0,0,0,787.1,209q-2.83,8.21-2.84,21l-18.46-7.88a74,74,0,0,1,6.9-32.28A55,55,0,0,1,793,166.75q13.43-8.58,33.05-8.58,15.49,0,25.57,5.16a45.23,45.23,0,0,1,16,13.17,57.25,57.25,0,0,1,8.78,17.05,87.58,87.58,0,0,1,3.68,17.1q.84,8.07.84,13.11v77.86Z"/><path d="M953.53,305.49q-15.1,0-25.56-5.74a39.3,39.3,0,0,1-15.82-15.3,42.33,42.33,0,0,1-5.36-21.05,46.8,46.8,0,0,1,3.36-18.14,36.32,36.32,0,0,1,10.33-13.95,55.27,55.27,0,0,1,18.08-9.62,170.75,170.75,0,0,1,19.69-4.9q11.29-2.21,24.53-4.07t27.7-4.07L999.37,215q.14-14.46-6.45-21.31t-22.21-6.84a40.31,40.31,0,0,0-18.21,4.39q-8.78,4.4-12.27,15.11l-28.4-8.91A52.65,52.65,0,0,1,931.52,169Q946,158.3,970.71,158.3q18.59,0,32.73,6.06a40.59,40.59,0,0,1,21,19.89,42.37,42.37,0,0,1,4.52,15,166.21,166.21,0,0,1,.78,16.72v85.61h-27.25V271.41l4.52,4.9q-9.42,15.1-22,22.15T953.53,305.49Zm6.2-24.79q10.59,0,18.08-3.74a36,36,0,0,0,11.94-9.17,32.49,32.49,0,0,0,6-10.2A39.9,39.9,0,0,0,998.53,244q.33-7.68.33-12.46l9.55,2.84q-14.07,2.19-24.15,3.87T967,241.38a119.83,119.83,0,0,0-12.78,3.3A39.58,39.58,0,0,0,945,249.2a19.11,19.11,0,0,0-5.74,5.94,15,15,0,0,0-2,7.87,16.17,16.17,0,0,0,2.58,9.11,17.76,17.76,0,0,0,7.55,6.26A29,29,0,0,0,959.73,280.7Z"/><path d="M1063,301.62V162.17h27.76v43.25h3.74v96.2Zm96.71,0V234.48a129.22,129.22,0,0,0-.91-14.59,52.37,52.37,0,0,0-4.19-15.43,30,30,0,0,0-9.82-12.21q-6.51-4.77-17.62-4.77a37,37,0,0,0-11.75,1.93,26.78,26.78,0,0,0-10.52,6.65,33.49,33.49,0,0,0-7.56,12.91q-2.83,8.21-2.84,21l-18.46-7.88A73.87,73.87,0,0,1,1083,189.8a54.93,54.93,0,0,1,20.33-23.05q13.43-8.58,33.06-8.58,15.5,0,25.56,5.16a45.14,45.14,0,0,1,16,13.17,57.25,57.25,0,0,1,8.78,17.05,86.86,86.86,0,0,1,3.68,17.1q.84,8.07.84,13.11v77.86Z"/><path d="M1230,301.62V269.73h31.89v31.89Z"/><path d="M1342.18,305.49q-15.11,0-25.56-5.74a39.24,39.24,0,0,1-15.82-15.3,42.33,42.33,0,0,1-5.36-21.05,46.8,46.8,0,0,1,3.36-18.14,36.22,36.22,0,0,1,10.33-13.95q7-5.87,18.07-9.62a171.8,171.8,0,0,1,19.69-4.9q11.31-2.21,24.54-4.07t27.69-4.07L1388,215q.12-14.46-6.46-21.31t-22.21-6.84a40.3,40.3,0,0,0-18.2,4.39q-8.79,4.4-12.27,15.11l-28.4-8.91A52.65,52.65,0,0,1,1320.17,169q14.52-10.71,39.18-10.71,18.6,0,32.74,6.06a40.63,40.63,0,0,1,21,19.89,42.57,42.57,0,0,1,4.52,15q.77,7.68.77,16.72v85.61h-27.24V271.41l4.52,4.9q-9.44,15.1-22,22.15T1342.18,305.49Zm6.2-24.79q10.59,0,18.08-3.74a36,36,0,0,0,11.94-9.17,32.25,32.25,0,0,0,6-10.2,39.9,39.9,0,0,0,2.78-13.62q.32-7.68.32-12.46l9.56,2.84q-14.08,2.19-24.15,3.87t-17.3,3.16a119.83,119.83,0,0,0-12.78,3.3,39.38,39.38,0,0,0-9.17,4.52,19.26,19.26,0,0,0-5.75,5.94,15.12,15.12,0,0,0-2,7.87,16.25,16.25,0,0,0,2.58,9.11,17.79,17.79,0,0,0,7.56,6.26A29,29,0,0,0,1348.38,280.7Z"/><path d="M1454.51,141V112.46h31.12V141Zm0,160.63V162.17h31.12V301.62Z"/><path class="cls-1" d="M237,240.49l1-.23L258.71,191a1.33,1.33,0,0,0,0-.4,3.31,3.31,0,0,0-.49-.08H208.91a6.81,6.81,0,0,0-.41.64,17.16,17.16,0,0,1-7.46,7.5,2.07,2.07,0,0,0-.32.19.7.7,0,0,0-.16.14c0,.22-.06.5-.08.79s0,.58,0,.87v97.17c0,.54,0,1.07,0,1.59a2.14,2.14,0,0,0,1.29.18h10a7.54,7.54,0,0,1,2.58.41,7.15,7.15,0,0,1,3.88,3.17c.21.36.4.73.64,1.16,1.22.06,2.47,0,3.72,0h7.45a2.35,2.35,0,0,1,.61,1.27q3.67,10.89,7.31,21.8c.52,1.54,1,3.07,1.54,4.62.1.3.16.62.25,1a2.7,2.7,0,0,1-.56.13q-46,0-92,0a1.16,1.16,0,0,1-.34-.12c.17-.95,8.95-27.24,9.56-28.61,1.21-.11,2.46,0,3.7-.05h7.53l.51-.87a7.18,7.18,0,0,1,6.53-3.89c3.3,0,6.59,0,9.88,0,.45,0,.91,0,1.44,0,0-.29.08-.53.08-.76,0-.42,0-.84,0-1.25V199.09c-1.19-.79-2.32-1.49-3.39-2.28a12.53,12.53,0,0,1-2.8-2.83c-.77-1.08-1.46-2.22-2.19-3.33-1-.13-48.51-.15-49.75,0-.2.34,0,.63.14.93l4,9.43,16.08,38,.55,1.29.88.21a1.74,1.74,0,0,1,.11.45,25.94,25.94,0,0,1-.61,6A32.83,32.83,0,0,1,125.34,272,32.43,32.43,0,0,1,114.69,273a32.85,32.85,0,0,1-29.55-23.7,31.32,31.32,0,0,1-1.21-7.51c0-.33,0-.66,0-1a1.44,1.44,0,0,1,.09-.31l.85-.23c.17-.35.37-.76.54-1.18q8-18.93,16-37.86l10-23.7c.17-.42.37-.82.58-1.28.62,0,1.2,0,1.78,0h62.28c.58,0,1.16,0,1.68,0,.77-1.14,1.46-2.23,2.23-3.27a12.24,12.24,0,0,1,2.64-2.64c1-.76,2.13-1.45,3.31-2.24a4.21,4.21,0,0,0,.08-.59c0-3.13,0-6.25,0-9.38,0-.2,0-.41-.05-.65l-.91-.65a13.92,13.92,0,0,1-6-9.43,14.41,14.41,0,1,1,22.56,9.3l-1.14.8V168a5,5,0,0,0,.56.4,17.23,17.23,0,0,1,7.27,7.2,6.62,6.62,0,0,0,.37.57c.57,0,1.15,0,1.73,0h62.4l1.67,0c1.59,3.59,3.06,7.16,4.57,10.72s3,7.06,4.48,10.59,3,7.13,4.54,10.7l4.53,10.7q2.24,5.3,4.48,10.59l4.54,10.73.95.26a1.22,1.22,0,0,1,.09.38,33.2,33.2,0,0,1-.83,6.81,33,33,0,0,1-63.7,1.89,36,36,0,0,1-1.32-8.12,4.28,4.28,0,0,1,0-.62A2.71,2.71,0,0,1,237,240.49ZM133,240.27c-.12-.36-.19-.64-.3-.9-3.84-9.48-15.23-36.16-15.89-37.23a1.9,1.9,0,0,0-.28.39Q108.6,221.28,100.7,240c0,.06,0,.16,0,.24C101.7,240.41,131.61,240.43,133,240.27Zm120.63,0c.38,0,.7.07,1,.08,11.36.12,30.21.05,31.25-.13a3.21,3.21,0,0,0-.45-1.39q-6.29-14.85-12.56-29.68c-.91-2.15-1.82-4.29-2.74-6.44-.08-.2-.12-.52-.58-.41q-7.9,18.66-15.83,37.43A2.33,2.33,0,0,0,253.63,240.3Z"/><path class="cls-1" d="M298.69,327.73c-5.23,3.92-10.22,7.93-15.49,11.56a158.56,158.56,0,0,1-56.37,24.36,162.14,162.14,0,0,1-137-32.41,158.9,158.9,0,0,1-43-53.87A156.5,156.5,0,0,1,33,234.85,153,153,0,0,1,30.69,212q-1.34-53.53,29.55-97.28A161.11,161.11,0,0,1,163.37,49.59a163.29,163.29,0,0,1,23.35-2.42A161.4,161.4,0,0,1,336.91,137a157.5,157.5,0,0,1,13.51,40.38,159.58,159.58,0,0,1-9.76,92.07,10,10,0,0,1-19.05-1.58,9.49,9.49,0,0,1,.56-6,137,137,0,0,0,9.39-32.71,142.49,142.49,0,0,0,1.64-18.34,136.34,136.34,0,0,0-.74-18.63,132.91,132.91,0,0,0-11.07-41.19q-25.17-55-82-75.91a132.89,132.89,0,0,0-28.72-6.89A139.06,139.06,0,0,0,187.29,67c-32.08,1.26-60.68,11.87-85.51,32.24a138.56,138.56,0,0,0-44,63.74,136,136,0,0,0-6.33,28.85,139.83,139.83,0,0,0-.34,27.67,137.64,137.64,0,0,0,14.66,51.1,141.69,141.69,0,0,0,81.38,69.82,132.52,132.52,0,0,0,25.76,5.91c5.16.63,10.37.91,15.57,1.18a122.17,122.17,0,0,0,22.37-1.14,140.14,140.14,0,0,0,40.86-11.89A141.77,141.77,0,0,0,290.31,308a20.24,20.24,0,0,1,4.19-3.34A9.63,9.63,0,0,1,306,306.52c5,5.17,9.94,10.41,14.9,15.62q12,12.62,24,25.24Q358.48,361.6,372,375.84c6.86,7.22,13.76,14.42,20.59,21.66a9.77,9.77,0,0,1-.49,13.95,9.92,9.92,0,0,1-13.84-.19c-6.73-6.95-13.37-14-20-21l-19.78-20.79q-13.65-14.36-27.29-28.7L299,328Z"/><path class="cls-1" d="M288.17,314.8c-4.68,3.48-9.15,7.05-13.87,10.26a142.36,142.36,0,0,1-50.44,21.63,146.11,146.11,0,0,1-122.61-28.77,141.45,141.45,0,0,1-38.48-47.81,138.64,138.64,0,0,1-12.4-37.74,136.23,136.23,0,0,1-2-20.26q-1.2-47.52,26.44-86.35a144.39,144.39,0,0,1,92.3-57.84,147.35,147.35,0,0,1,89.62,12.51,143.39,143.39,0,0,1,36.91,25.83,141.86,141.86,0,0,1,28.77,39.2A140.62,140.62,0,0,1,325.73,263a8.77,8.77,0,0,1-8.68,5.54,8.68,8.68,0,0,1-8.37-6.94,8.39,8.39,0,0,1,.5-5.34,120.54,120.54,0,0,0,8.4-29A125,125,0,0,0,319.05,211a120,120,0,0,0-.66-16.53,117.15,117.15,0,0,0-9.91-36.57Q286,109,235.06,90.51a119.1,119.1,0,0,0-25.7-6.12,125.81,125.81,0,0,0-20.89-1c-28.71,1.12-54.3,10.53-76.53,28.62a123.07,123.07,0,0,0-39.38,56.57,120,120,0,0,0-5.67,25.61,123,123,0,0,0-.3,24.57,121.46,121.46,0,0,0,13.12,45.35,124.81,124.81,0,0,0,33.64,40.85A126.09,126.09,0,0,0,152.54,326a119.32,119.32,0,0,0,23.05,5.25c4.62.56,9.29.8,13.94,1a109,109,0,0,0,20-1,126.84,126.84,0,0,0,71.12-34,17.77,17.77,0,0,1,3.75-3,8.67,8.67,0,0,1,10.3,1.66c4.48,4.59,8.89,9.24,13.33,13.86q10.76,11.21,21.51,22.41l24.23,25.26c6.14,6.41,12.31,12.79,18.43,19.23a8.62,8.62,0,0,1-.44,12.38A8.94,8.94,0,0,1,359.4,389c-6-6.17-12-12.42-17.94-18.64s-11.81-12.3-17.71-18.46l-24.43-25.47q-5.42-5.65-10.86-11.3C288.33,314.94,288.19,314.82,288.17,314.8Z"/><path class="cls-1" d="M207.44,105.23c.7.07,1.4.16,2.1.24s-1.25-.18,0,0l1.14.17c1.4.21,2.79.46,4.17.74,2.64.53,5.26,1.17,7.84,1.92s5.39,1.69,8,2.71l1.79.71c.2.08,1.42.56.22.09.24.09.48.2.71.3,1.29.56,2.58,1.15,3.84,1.77a100.64,100.64,0,0,1,14.22,8.41l1.71,1.24.77.57c.16.13,1.22.89.2.16,1.14.81,2.21,1.76,3.28,2.66,2,1.74,4,3.56,5.91,5.46,2.17,2.17,4.23,4.45,6.18,6.81.53.64,1,1.3,1.56,2s-.71-1,0,0c.27.36.54.71.8,1.07.95,1.29,1.85,2.6,2.73,3.94,1.44,2.18,4.49,3.31,6.85,1.79,2.17-1.4,3.33-4.51,1.79-6.84A104.82,104.82,0,0,0,227.2,99.23a103.2,103.2,0,0,0-19.76-4c-2.61-.28-5.11,2.5-5,5,.13,3,2.2,4.7,5,5Z"/><circle class="cls-1" cx="326.41" cy="260.48" r="17.21"/><ellipse class="cls-1" cx="381.79" cy="407.95" rx="14.73" ry="15.2"/><line class="cls-2" x1="288.43" y1="323.48" x2="377.75" y2="414.7"/></svg>